<?xml version="1.0" encoding="UTF-8"?>
<svg width="20px" height="20px" viewBox="0 0 20 20" version="1.1" xmlns="http://www.w3.org/2000/svg" xmlns:xlink="http://www.w3.org/1999/xlink">
    <!-- Generator: Sketch 48.2 (47327) - http://www.bohemiancoding.com/sketch -->
    <title>icon/slack</title>
    <desc>Created with Sketch.</desc>
    <defs></defs>
    <g id="Symbols" stroke="none" stroke-width="1" fill="none" fill-rule="evenodd">
        <g id="icon/slack" fill="#48567C">
            <path d="M19.9346516,10.5547378 L19.9126516,10.4823145 C19.6796516,9.7862461 19.0166516,9.32253578 18.2626516,9.32857106 C18.0726516,9.33058282 17.8836516,9.36176507 17.7006516,9.4231237 L15.7366516,10.0910275 L14.4686516,6.30188048 L14.4686516,6.30188048 L14.4686516,6.30188048 C16.3186516,5.66616481 16.3576516,5.65308838 16.3576516,5.65308838 C17.1456516,5.38653039 17.8046516,4.55567415 17.5396516,3.62423 L17.5176516,3.55583021 C17.2796516,2.84266184 16.6296516,2.38498679 15.8636516,2.39102207 C15.6916516,2.39202795 15.5186516,2.41717493 15.3466516,2.46746889 L13.4046516,3.12229626 L12.7586516,1.1940258 C12.6106516,0.750433061 12.2986516,0.392340058 11.8826516,0.18412306 C11.6346516,0.0603999154 11.3696516,-0.00196459634 11.0966516,4.71621062e-05 C10.9136516,0.00205892055 10.7306516,0.0332411764 10.5536516,0.0925880504 C9.67165157,0.392340058 9.17965157,1.33082537 9.43565157,2.23108727 L9.45865157,2.31055173 L10.1026516,4.23479868 L11.2626516,7.70105848 L12.4386516,11.2125828 L8.71565157,12.4789848 L8.71565157,12.4789848 L7.45465157,8.71096122 L7.45465157,8.71096122 L7.45465157,8.71096122 C8.72465157,8.27440963 9.80265157,7.90424608 10.7366516,7.58337061 L10.1026516,4.23479868 L6.37665157,5.49013595 L5.73465157,3.57192428 C5.49465157,2.85272063 4.82565157,2.37392212 4.07065157,2.3799574 C3.88665157,2.38096328 3.70465157,2.41214553 3.52865157,2.47149241 C2.64665157,2.77023854 2.15565157,3.70972973 2.41165157,4.60999163 C2.41865157,4.63614449 2.42765157,4.66229735 2.43565157,4.68845021 L3.07565157,6.60263837 L3.07565157,6.60263837 L4.15965157,9.84257534 L4.15965157,9.84257534 L4.15965157,9.84257534 L5.41765157,13.6005401 L3.54165157,14.2382675 C2.65565157,14.5380195 2.16365157,15.483546 2.42065157,16.3878314 C2.42865157,16.4149902 2.43665157,16.441143 2.44565157,16.4672959 C2.67565157,17.1553173 3.31065157,17.5968983 4.06265157,17.590863 L4.06265157,17.5918689 C4.26365157,17.5898571 4.46565157,17.5546513 4.66365157,17.4882633 L6.50665157,16.8545594 L7.15965157,18.806971 C7.40065157,19.5261746 8.06965157,20.005979 8.82465157,19.9999437 L8.82465157,19.9999437 L8.82465157,19.9999437 C9.00765157,19.997932 9.18965157,19.9677556 9.36465157,19.9084087 C10.2486516,19.6086567 10.7396516,18.6691655 10.4836516,17.7678977 C10.4766516,17.7427507 10.4686516,17.715592 10.4596516,17.690445 L9.80065157,15.7209335 L13.5196516,14.442461 L14.1846516,16.4300784 C14.4246516,17.1482761 15.0936516,17.6270746 15.8486516,17.6220452 C16.0326516,17.6200335 16.2146516,17.5888512 16.3896516,17.5305102 C17.2716516,17.2317641 17.7626516,16.291267 17.4976516,15.3568052 L17.4836516,15.3115407 L16.8136516,13.3088351 L18.8766516,12.5996903 C18.8766516,12.5996903 19.5156516,12.3200559 19.7186516,12.0032039 C19.9906516,11.5767111 20.0716516,11.0355481 19.9346516,10.5547378 L19.9346516,10.5547378 Z M3.74965157,9.98339843 C3.27165157,10.1473567 2.79165157,10.3123209 2.27765157,10.4883498 C2.08865157,10.5527261 1.89565157,10.5849142 1.70265157,10.586926 C0.955651568,10.5929612 0.323651568,10.145345 0.0906515682,9.4472648 C0.0816515682,9.42010607 0.0736515682,9.39395321 0.0666515682,9.36780035 C-0.187348432,8.47357372 0.305651568,7.53810604 1.18765157,7.23835404 L3.04165157,6.61370304 L3.74965157,9.98339843 Z" id="slack-[#175]"></path>
        </g>
    </g>
</svg>